<?xml version="1.0" encoding="UTF-8"?>
<svg viewBox="0 0 32 32" xmlns="http://www.w3.org/2000/svg">
<path fill="gray" d="m16 4a12 12 0 1 0 12 12 12.013 12.013 0 0 0-12-12zm2 18a1 1 0 0 1-1 1h-2a1 1 0 0 1-1-1v-2a1 1 0 0 1 1-1h2a1 1 0 0 1 1 1zm2.75-8.8857c0 1.3792-0.86694 2.0822-1.9557 2.825a3.5176 3.5176 0 0 0-1.4737 1.721 0.49149 0.49149 0 0 1-0.47125 0.33979h-2.062a0.50188 0.50188 0 0 1-0.49414-0.5802 3.2686 3.2686 0 0 1 0.65955-1.601 10.469 10.469 0 0 1 2.3275-1.8564 1.0162 1.0162 0 0 0 0.46973-0.84814v-0.11426a1.0013 1.0013 0 0 0-1-1h-1.5a1 1 0 0 0-1 1 1 1 0 0 1-1 1h-1a1 1 0 0 1-1-1 3.9999 3.9999 0 0 1 4-4h1.5c2.2828 0 4 1.1639 4 4z"/>
</svg>